<?xml version="1.0" standalone="no"?>
<!DOCTYPE svg PUBLIC "-//W3C//DTD SVG 20010904//EN"
 "http://www.w3.org/TR/2001/REC-SVG-20010904/DTD/svg10.dtd">
<svg version="1.0" xmlns="http://www.w3.org/2000/svg"
 width="700.000000pt" height="700.000000pt" viewBox="0 0 700.000000 700.000000"
 preserveAspectRatio="xMidYMid meet">
<metadata>
Created by potrace 1.14, written by Peter Selinger 2001-2017
</metadata>
<g transform="translate(0.000000,700.000000) scale(0.100000,-0.100000)"
fill="#000000" stroke="none">
<path d="M3278 6995 c-2 -1 -41 -5 -88 -9 -47 -4 -96 -8 -110 -10 -14 -2 -46
-7 -71 -10 -63 -9 -151 -25 -237 -42 -164 -33 -441 -118 -587 -179 -139 -58
-351 -163 -435 -214 -19 -12 -43 -24 -52 -27 -10 -4 -18 -10 -18 -15 0 -5 -5
-9 -10 -9 -13 0 -132 -80 -255 -170 -397 -293 -737 -682 -983 -1125 -209 -377
-366 -866 -407 -1265 -2 -14 -6 -61 -11 -105 -15 -150 -9 -621 11 -723 1 -9 6
-42 9 -72 7 -62 11 -84 31 -190 40 -208 108 -438 194 -655 49 -123 184 -386
268 -519 101 -161 270 -390 358 -482 11 -12 43 -45 71 -75 79 -82 212 -209
284 -269 35 -30 71 -61 78 -68 7 -6 35 -26 60 -44 26 -17 49 -35 52 -38 5 -6
170 -119 216 -147 442 -275 905 -438 1444 -508 226 -30 681 -24 900 10 14 3
43 7 65 11 22 3 74 12 115 20 41 8 86 17 100 20 131 26 379 105 561 179 189
77 566 277 577 307 2 4 8 8 13 8 12 0 162 107 282 203 177 140 448 421 599
622 47 63 165 236 184 270 6 11 26 45 44 75 108 181 246 498 315 725 105 345
150 650 149 1025 0 263 -7 347 -49 615 -4 22 -13 69 -21 105 -8 36 -17 76 -20
90 -11 56 -69 251 -101 345 -266 766 -811 1433 -1513 1852 -373 222 -830 388
-1235 449 -27 4 -57 9 -65 10 -8 2 -44 6 -80 10 -36 3 -78 8 -95 11 -32 5
-532 13 -537 8z m517 -168 c17 -3 57 -9 90 -12 33 -3 71 -8 85 -10 14 -2 57
-9 95 -15 90 -14 235 -46 305 -66 260 -76 402 -131 617 -239 394 -197 707
-436 1008 -770 292 -324 536 -750 676 -1176 59 -182 122 -454 134 -584 2 -23
6 -52 9 -67 19 -105 27 -458 14 -623 -11 -148 -31 -300 -48 -380 -5 -22 -12
-56 -15 -75 -11 -67 -67 -266 -107 -385 -236 -692 -705 -1301 -1310 -1701 -70
-46 -130 -84 -134 -84 -4 0 -15 -6 -23 -14 -29 -25 -304 -164 -421 -212 -188
-76 -453 -156 -625 -188 -65 -12 -162 -28 -200 -32 -22 -3 -51 -7 -64 -9 -61
-11 -231 -19 -386 -19 -216 1 -345 10 -520 39 -129 22 -146 25 -185 35 -19 5
-47 11 -61 14 -73 12 -374 106 -454 141 -16 7 -50 21 -75 32 -82 33 -302 143
-389 195 -80 47 -330 214 -341 227 -3 4 -52 45 -110 93 -414 340 -756 810
-960 1323 -43 106 -121 340 -135 404 -16 69 -55 264 -60 296 -21 143 -27 190
-32 275 -16 224 -5 587 21 725 3 17 9 50 12 75 10 71 18 112 46 230 31 136 83
300 144 455 215 555 597 1059 1089 1436 424 326 982 561 1512 639 43 6 88 13
101 15 12 2 64 7 115 11 50 3 93 7 95 9 5 4 458 -3 487 -8z"/>
<path d="M1808 5562 c-69 -24 -130 -80 -163 -149 l-28 -58 -1 -1855 0 -1855
23 -50 c37 -83 120 -153 200 -170 45 -9 1628 -9 1671 0 19 4 48 14 64 22 38
19 116 92 116 108 0 7 6 18 14 24 8 7 17 34 21 61 4 27 7 875 7 1883 l0 1833
-21 45 c-32 67 -77 117 -135 147 l-51 27 -835 2 c-753 1 -840 -1 -882 -15z
m1033 -311 c23 -18 23 -24 24 -175 0 -97 4 -156 10 -157 6 0 83 -1 172 -2 155
-2 162 -3 187 -26 37 -35 45 -72 43 -219 -2 -134 -2 -134 -30 -156 -26 -21
-39 -23 -200 -25 -94 -1 -173 -4 -176 -7 -3 -2 -5 -78 -6 -168 -1 -137 -4
-167 -18 -190 -20 -29 -11 -28 -172 -30 -133 -2 -162 4 -195 39 -22 23 -23 33
-25 185 -1 88 -3 162 -6 164 -3 3 -65 6 -138 7 -145 1 -186 9 -207 36 -20 26
-19 293 0 332 28 53 38 56 190 58 78 1 146 2 151 2 6 1 10 57 11 145 0 200 6
205 225 206 120 0 140 -2 160 -19z m-387 -1816 c22 -21 26 -32 27 -87 3 -163
1 -341 -5 -361 -11 -45 -55 -54 -256 -54 -102 0 -197 4 -211 9 -48 17 -54 43
-53 257 0 207 5 234 47 251 12 5 112 9 223 9 200 1 201 1 228 -24z m911 0 c14
-13 26 -34 26 -47 5 -94 3 -373 -3 -395 -14 -54 -42 -60 -265 -59 -202 1 -203
1 -228 26 l-25 25 -1 207 c-1 177 2 210 16 231 9 14 24 28 33 30 9 3 108 5
220 6 203 1 203 1 227 -24z m-927 -914 c12 -6 27 -21 33 -33 16 -29 16 -406 0
-436 -22 -41 -45 -45 -260 -45 l-204 1 -25 26 -26 26 -1 209 c0 285 -20 267
286 265 111 -1 184 -6 197 -13z m932 -18 l26 -29 -1 -207 -1 -208 -26 -26 -26
-26 -199 -1 c-209 -2 -242 4 -263 45 -7 13 -11 94 -11 221 0 183 2 204 19 227
24 32 63 37 292 34 l165 -2 25 -28z"/>
<path d="M4044 4125 c-54 -23 -77 -109 -44 -169 29 -55 -1 -53 860 -53 493 0
806 4 823 10 82 28 88 170 9 211 -39 20 -1601 22 -1648 1z"/>
<path d="M4160 3720 c-54 -10 -116 -46 -147 -87 l-28 -36 -1 -1001 c-1 -1079
-4 -1025 53 -1078 59 -56 109 -69 271 -70 81 0 164 0 185 1 l37 1 0 481 c0
651 -28 602 345 602 235 0 244 -1 274 -22 67 -48 66 -34 69 -571 2 -266 5
-486 7 -489 3 -2 84 -3 180 -2 157 1 181 4 222 23 55 26 109 79 116 116 3 15
6 470 6 1012 1 956 1 986 -18 1016 -11 18 -34 43 -53 57 -70 52 -62 51 -798
52 -377 1 -701 -2 -720 -5z"/>
</g>
</svg>
